<svg width="589" height="228" viewBox="0 0 589 228" fill="none" xmlns="http://www.w3.org/2000/svg">
<path d="M26.409 96.0773L10 112.017V119.05C10 124.441 18.4389 132.411 23.596 132.411H43.0524C47.2718 132.411 55.9451 126.551 55.9451 119.753V98.6558C56.5077 89.8419 49.1471 78.7307 45.8653 73.808C39.0673 61.8529 28.2843 48.9601 26.6434 40.0524V28.8005C28.1849 25.7089 29.2219 24.5811 33.6758 24.5811C36.9576 24.5811 39.0673 25.5187 40.005 28.8005V46.616L55.9451 30.9102V21.5337C55.9451 16.1421 47.7406 9.34415 42.8179 9.34415H24.5337C16.0948 9.34415 10 18.0175 10 23.8778V40.99C10 53.414 19.611 64.0265 23.596 69.8229C33.9102 84.8254 39.3017 93.9676 39.5362 100.062V112.486C39.5362 115.065 36.9576 117.409 32.7381 117.409C28.9875 117.409 27.1122 116.002 26.6434 112.486L26.409 96.0773Z" fill="#EDF1F7"/>
<path fill-rule="evenodd" clip-rule="evenodd" d="M74.6973 137.408V7H105.626C113.592 7.2484 119.684 15.6939 119.684 22.649V69.3475C119.684 78.0414 111.015 84.7481 105.626 84.7481H90.8643V137.408H74.6973ZM154.361 7H137.96V148.586L154.361 131.447V7ZM236.836 7V137.408H275.965V121.014H253.003V78.5382H261.907L268.233 62.3924H253.003V23.3942H275.965V7H236.836ZM294.475 7V137.408H310.408V85.2449H317.906C321.267 85.3059 323.061 86.9837 323.061 89.9644V131.695L339.462 148.338V87.4805C339.462 84.2513 334.542 77.793 329.387 77.0478C334.776 76.7994 339.462 69.8443 339.462 66.6152V21.407C339.462 14.7003 330.558 7.00002 324.701 7H294.475ZM351.88 82.7609V69.5959H372.03V82.7609H351.88ZM384.683 7V137.408H398.976V41.5271L410.457 137.408H423.109L435.762 41.5271L435.059 137.408H450.991V7H429.201L418.189 96.9195L406.708 7H384.683ZM481.217 7L465.05 137.408H480.045L482.623 111.823H488.949L494.338 95.9259H484.966L490.589 41.5271L499.024 137.408H516.128L499.024 7H481.217ZM529.718 137.408V7H544.948L565.098 87.7289V7H579.625V137.408H566.738L544.713 57.4245V137.408H529.718ZM172.403 7V137.408H204.268C212.917 134.697 216.178 131.776 217.389 122.504V22.649C216.492 12.7473 213.096 9.68055 203.799 7H172.403ZM188.804 121.014V23.3942V22.649H196.302C199.688 23.6799 200.965 24.8412 201.691 28.3621V116.046C200.972 119.39 199.71 120.332 196.536 121.014H188.804ZM90.6373 69.354V23.4089H98.8418C101.186 23.6433 103.061 25.2842 103.53 28.0972V64.9002C103.296 67.0099 101.186 69.354 98.8418 69.354H90.6373ZM310.517 23.4089V69.354H318.722C321.066 69.354 323.176 67.0099 323.41 64.9002V28.0972C322.941 25.2842 321.066 23.6433 318.722 23.4089H310.517Z" fill="#EDF1F7"/>
<rect x="51" y="119" width="459" height="102"/>
</svg>
